<svg xmlns="http://www.w3.org/2000/svg" viewBox="0 0 200 200" fill="none">
  <title>ContractSpy Logo</title>
  <defs>
    <linearGradient id="grad" x1="0" y1="0" x2="200" y2="200" gradientUnits="userSpaceOnUse">
      <stop offset="0%" stop-color="#3B82F6"/>
      <stop offset="100%" stop-color="#10B981"/>
    </linearGradient>
    <filter id="softGlow" x="-20%" y="-20%" width="140%" height="140%">
      <feGaussianBlur stdDeviation="8" result="blur"/>
      <feMerge>
        <feMergeNode in="blur"/>
        <feMergeNode in="SourceGraphic"/>
      </feMerge>
    </filter>
  </defs>

  <rect x="20" y="20" width="160" height="160" rx="40" fill="url(#grad)" filter="url(#softGlow)"/>
  <path d="M70 55h45l25 25v65c0 5.5-4.5 10-10 10H70c-5.5 0-10-4.5-10-10V65c0-5.5 4.5-10 10-10z" fill="white" opacity="0.95"/>
  <path d="M115 55v25h25" fill="none" stroke="url(#grad)" stroke-width="3" stroke-linejoin="round"/>
  <path d="M80 90h40M80 100h40M80 110h28" stroke="#0f172a" stroke-opacity="0.5" stroke-width="2" stroke-linecap="round"/>
  <circle cx="125" cy="125" r="14" stroke="#0f172a" stroke-width="3" fill="none"/>
  <line x1="135" y1="135" x2="145" y2="145" stroke="#0f172a" stroke-width="3" stroke-linecap="round"/>
  <circle cx="130" cy="120" r="4" fill="white" opacity="0.7"/>
</svg>
